/* XPM */
static char * left_xpm[] = {
"13 22 15 1",
" 	c None",
".	c #565972",
"+	c #46465E",
"@	c #716B6E",
"#	c #5D585F",
"$	c #555157",
"%	c #3A3A50",
"&	c #B59E95",
"*	c #F6AE9F",
"=	c #FFCBB0",
"-	c #C9A495",
";	c #E19B9B",
">	c #6C6E85",
",	c #C2B8D5",
"'	c #D8D0E0",
"   ..+++++   ",
"  .@@@@@##+  ",
" .##@@@@@##+ ",
" +####@@@##+ ",
"+######@@##$+",
"+#########$$%",
"+########$$$%",
"+###&&##$$$$%",
"+*=====$$$$$%",
".======-$$$$+",
"+=%=====*$$+ ",
"%;>====**$$% ",
" %***=***;%  ",
"  +++%%%%%   ",
"  %,+..%.%   ",
"  %'+>>%.%   ",
"  %+.==+.%   ",
"  %>.=*+.%   ",
"   %%++%%    ",
"   %....%    ",
"    %>>>%    ",
"     %%%     "};
