/* XPM */
static char * up_xpm[] = {
"16 22 10 1",
" 	c None",
".	c #565972",
"+	c #46465E",
"@	c #716B6E",
"#	c #5D585F",
"$	c #555157",
"%	c #3A3A50",
"&	c #6C6E85",
"*	c #FFCBB0",
"=	c #F6AE9F",
"    ..++++++    ",
"   .@@@@@@##+   ",
"  .@@@@@@@@##+  ",
"  +@@@@@@@@##+  ",
" +$#@@@@@@###$+ ",
" %$##########$% ",
" %$##########$% ",
" %$$########$$% ",
" %$$$$$$$$$$$$% ",
" +$$$$$$$$$$$$+ ",
"  +$$$$$$$$$$+  ",
"   %$$$$$$$$%   ",
"  %.%%%%%%%%.%  ",
" %&&........&&+ ",
" %&&&&&&&&&&&&+ ",
"%*%%&&&&&&&&%%*+",
"%*=%.&&&&&&.%=*+",
" %%%+......+%%% ",
"   %.%%%%%%.%   ",
"   %..++++..%   ",
"   %&&%  %&&%   ",
"    %%    %%    "};
